<svg version="1.2" xmlns="http://www.w3.org/2000/svg" viewBox="0 0 1224 1224" width="1224"
	height="1224">
	<title>MACUSPANA LOGO 2024 (1)-pdf</title>
	<defs>
		<clipPath clipPathUnits="userSpaceOnUse" id="cp1">
			<path d="m0-117h1224v1585h-1224z" />
		</clipPath>
		<clipPath clipPathUnits="userSpaceOnUse" id="cp2">
			<path
				d="m399.33 320.1v330.87c0 97.82 79.3 177.12 177.12 177.12 72.86 0 135.46-44 162.64-106.88 9.31-21.54 14.47-45.28 14.47-70.24v-330.87c0-97.82-79.3-177.12-177.11-177.12-97.82 0-177.12 79.3-177.12 177.12z" />
		</clipPath>
	</defs>
	<style>
		.s0 { fill: #671034 }
		.s1 { fill: none;stroke: #ad7b4d;stroke-miterlimit:10;stroke-width: 16 }
		.s2 { fill: #ad7b4d }
		.s3 { fill: #ad794b }
		.s4 { fill: none;stroke: #ad7b4d;stroke-miterlimit:10 }
		.s5 { fill: #ad7b4d;stroke: #ad7b4d;stroke-miterlimit:10 }
		.s6 { fill: #ffffff;stroke: #ad7b4d;stroke-miterlimit:10 }
		.s7 { fill: #262c2d }
	</style>
	<g id="Page 1" clip-path="url(#cp1)">
		<path id="Path 1" fill-rule="evenodd" class="s0"
			d="m169.2 793.7h36.1v109.6h-36.9v-49.8l-21.5 36.3h-11.9l-21.6-36.3v49.8h-37.1v-109.6h36.5l28 45.3zm132.6 109.5l-5.5-15.3h-39.3l-5.6 15.3h-40.4l46.3-109.6h39.2l46.3 109.6zm-35.5-40.7h21.1l-10.5-29.4zm71.5-14.1c0-33 25.9-57 60.2-57 18.6 0 35.5 6.1 48 20.2l-25.2 22.4c-5.8-6.9-13.1-10.3-20.8-10.3-12.4 0-22.7 9.1-22.7 24.7 0 15.3 10 24.3 22.2 24.3 7.5 0 15.5-3.3 21.8-10.4l25 22.4c-11.6 14.6-28.5 20.7-46.9 20.7-34.9 0-61.6-24-61.6-57zm114.3 6.9v-61.7h39.1v61.2c0 11.8 5.5 18.2 15.2 18.2 10 0 15.8-6.4 15.8-18.2v-61.2h38.7v61.7c0 30.8-21 50.1-54.5 50.1-33.2 0-54.3-19.3-54.3-50.1zm115.4 35.8l14-26.3c12.7 6.6 27.3 12.4 39.8 12.4 4.9 0 9.1-1.4 9.1-5.2 0-4.5-5.2-5.9-16-8.1-25.3-5.3-44.4-13.9-44.4-36.8 0-23.9 21.1-35.7 47.9-35.7 18.7 0 35.5 4.6 47.7 15.1l-16.7 23.1c-9.1-6.5-20.1-10-29.8-10-5.9 0-10 0.9-10 4.7 0 3.3 3.8 5.6 15.5 8.1 28.8 6 44.6 14.4 44.6 35.6 0 23.9-21.4 37.4-48.4 37.4-22.3 0-41.4-5.8-53.3-14.3zm212.2-55.4c0 26.3-20 42.8-51.8 42.8h-11.1v24.7h-39.1v-109.6h50.2c31.9 0 51.8 16.1 51.8 42.1zm-52.9 12.2c8.5 0 13.8-4.3 13.8-11.9 0-7.5-5.3-11.9-13.8-11.9h-10v23.8z" />
		<path id="Path 2" fill-rule="evenodd" class="s0"
			d="m855.5 903.3l-5.5-15.4h-39.3l-5.6 15.4h-40.4l46.3-109.6h39.2l46.3 109.6zm-35.5-40.7h21.1l-10.5-29.4zm82.2 40.7v-109.6h32.7l39.6 48.2v-48.2h39.1v109.6h-31.6l-40.7-49.8v49.8zm208 0l-5.4-15.4h-39.3l-5.7 15.4h-40.4l46.4-109.6h39.1l46.3 109.6zm-35.5-40.7h21.1l-10.4-29.5z" />
		<path id="Path 3" class="s1"
			d="m437.9 213.8c19.5-26.2 44.7-48 74-63.1 63.5-32.6 144.5-31.7 207.1 2.6 65.4 35.8 108.9 105.5 112.9 181.2 1.6 31.7 0.3 63.7 0.3 95.4v161.7c0 28.8 1.8 59-0.4 88.1m-438.7-29c-0.2-21 0.8-42.2 0.8-62.7v-161.8c0-32.3-1.9-65.3 0.6-97.6 3.3-42 18.9-81.8 43.4-114.8" />
		<path id="Path 4" class="s2"
			d="m746.5 419.3c0 0 5.2-14.8-1.5-23.6 0 0 2.3 10.2 0.6 12.7-1.8 2.4-5.2-15.6-9.3-16.8 0 0 4.9 15.4 3.8 16.8 0 0-3.3-5.5-5.9-6-2.6-0.6 8.2 8.2 8.6 16.8 0.3 8.6 3.7 0.1 3.7 0.1z" />
		<path id="Path 5" fill-rule="evenodd" class="s2"
			d="m742.7 483.2c3.3-0.7 6.7 0 9.9 1q1 0.3 2 0.7c0.2 0.1 0.4 0.2 0.7 0.4q0.1-0.2 0.1-0.4c-0.2-0.6-0.5-1.2-0.8-1.8-1.6-3-3.3-6-4.9-9-1.2-2.4-2.4-4.9-3.6-7.3-1.2-2.7-2.4-5.4-3.5-8.1-3.2-7.7-6-15.5-6.4-24-0.1-3 0.3-6 1.4-8.8 0.6-1.5 1.7-2.8 2.9-3.9 0.1-0.1 0.1-0.2 0.2-0.3q1.1-0.7 2.1-1.3c1-0.3 1.9-0.7 2.8-0.9 3.3-0.8 6.3 0 9.3 1.3 4.3 1.9 7.8 4.7 11.2 7.8q5.3 4.9 9.9 10.6c2.1 2.7 4.3 5.4 6.4 8.2 2 2.7 3.9 5.5 5.9 8.3 0.7 1 1.4 1.9 2.3 3 0-0.8 0-1.4 0-2.1 0.1-2.8 0.1-5.7 0.4-8.5 0.2-2.7 1.2-5.1 3.1-6.9 2.1-2.1 4.5-2.9 7.5-2.3 6 1.2 11.2 4 16.1 7.6q1.9 1.4 3.6 3.1c1.1 1.3 0.4 3.3-1.2 3.5-2.3 0.3-4.5 0.3-6.7 0.4q-2.4 0.1-4.8 0.3c-0.4 0-0.6 0.2-0.6 0.6 0.3 2.3 0.4 4.5 0.7 6.7 1.1 7.5 3.1 14.8 5.7 21.9 2.5 7.1 5.1 14.1 7.6 21.2 2.4 6.7 4.6 13.5 6 20.5 0.6 3.5 1.1 7.1 0.7 10.7q-0.6 5.4-3.8 9.6c5.7 6 10.3 12 13 17.5q0.5 1.2 1 2.2c-2.2 0.9-4.1 2.6-3.7 4.8q0.3 2 0.3 3.9c-1.8 1.2-2.9 3-1.9 5.1q0.7 1.2 1.4 2.4c-0.5 2.7-1.1 5.4-1.8 8.1-12.1-1.3-29.1-5.8-37.8-20.4-14.5-24.2-28.7-16.4-40.7-31.5-12-15.1-22.1-14.6-22.1-14.6 0 0 3.9 41.5-3.3 55.9-7.1 14.5-9.8 37.5-9.3 43.1 0.5 5.7-10.4-6.7-6-33.9 4.3-27.2-3.4-40.3-5-57.2-1.6-16.9-1.2-38.4 13.8-38.6 13.5-0.2 14.3-9.7 18.2-8.1q0.8-0.3 1.7-0.5zm-1.9-55.1q-0.3 0-0.5 0c-0.1 1.9-0.2 3.7-0.1 5.6 0 0.5 0.6 1.1 0.9 1.7 0.4-0.5 1.2-1 1.3-1.6 0.5-2.2-0.5-4-1.6-5.7zm4.5-3.1c0 0.4-0.2 0.7-0.1 0.8 0.5 1.9 1 3.8 1.7 5.6 0.2 0.7 1 0.9 1.8 0.7 0.4-0.2 0.8-0.5 1.3-0.8 0.6-0.4 0.7-0.9 0.3-1.5-1.3-1.9-3-3.4-5-4.8zm45.9 47.5c-0.9 0.2-3.6 1.8-4 2.4-0.1 0.2-0.2 0.6-0.1 0.7 0.8 1.2 1.5 2.4 2.4 3.5 0.5 0.7 1.4 0.5 1.8-0.3q0.2-0.5 0.2-0.9c0.3-1.8 0.1-3.6-0.3-5.4zm-28.3-38.2q0.5-0.4 1-0.8c0.3-0.3 0.3-0.7 0-1-1-0.9-2.1-1.9-3.2-2.7-0.8-0.6-2.6 0.1-2.8 1.1-0.1 0.1 0 0.4 0.1 0.5 0.5 0.8 0.9 1.7 1.6 2.4 1.3 1.5 1.5 1.5 3.3 0.5zm-17.2 5.5c-0.9-1.4-1.1-1.4-2.4-0.5-0.1 0.1-0.1 0.1-0.1 0.1-0.3 0.4-0.9 0.9-0.8 1.3 0.2 1.5 0.6 2.9 1 4.3 0.1 0.5 0.5 0.6 0.9 0.4q1.1-0.6 2.2-1.3c0.6-0.3 0.7-0.9 0.4-1.5q-0.6-1.4-1.2-2.8zm8.4-0.1c0.5-0.4 1.2-0.8 1.7-1.4 0.2-0.2 0.3-0.7 0.2-0.9-0.5-1.3-1.4-2.4-2.6-3.3-0.2-0.2-0.7-0.2-1-0.1-0.7 0.2-1.3 0.6-2 1-0.8 0.5-1.1 1-0.7 2 0.4 1.1 1 2.2 1.6 3.2 0.1 0.2 0.7 0.4 0.9 0.3 0.7-0.2 1.2-0.5 1.9-0.8zm-4.5 15.1q0.9-0.7 1.7-1.3 0.8-0.5 0.4-1.4c-0.5-0.9-0.9-1.9-1.5-2.9-0.5-0.9-1-1-1.9-0.5q-1 0.5-2 1.2c-0.7 0.5-1.1 1.1-0.8 1.9q0.6 1.7 1.3 3.4c0.2 0.5 0.6 0.6 1.1 0.4q0.9-0.4 1.7-0.8zm22.3-13.8c-1-1.2-1.9-2.3-2.8-3.4-0.5-0.6-1.2-0.7-1.8-0.3-1 0.5-1.9 1.1-2.8 1.7-0.5 0.3-0.5 0.7-0.3 1.1 0.8 1.2 1.6 2.3 2.5 3.3 0.1 0.2 0.7 0.3 1 0.2 1.3-0.8 2.6-1.6 4.2-2.6zm-7.9 47.8c1.2 0.6 2.3 1.3 3.5 2 2.1 1.1 3.2 1 5.1-0.6q0.7-0.6 0.3-1.3-0.8-1.4-1.8-2.9c-0.7-1.1-0.8-1-1.9-0.4-1.7 0.9-3.4 2.1-5.2 3.2zm-12.4-29.8q0 0 0 0-0.7 0.5-1.5 1c-0.5 0.3-0.8 0.9-0.6 1.5q0.8 1.8 1.8 3.6c0.1 0.2 0.7 0.3 0.8 0.2q2.3-1.2 4.4-2.6c0.4-0.3 0.6-0.8 0.3-1.2-0.6-1.2-1.2-2.3-1.9-3.4-0.2-0.2-0.8-0.3-1-0.2-0.8 0.3-1.5 0.7-2.3 1.1zm20.9-12.6q0 0 0-0.1c-0.7 0.5-1.3 1-2 1.5-0.5 0.3-0.5 0.8-0.3 1.2 0.5 0.8 1 1.7 1.5 2.4 0.8 1.1 1.5 1.3 2.4 0.8 1.2-0.7 2.4-1.5 3.5-2.3 0.7-0.4 0.7-0.9 0.3-1.5-0.5-0.7-1-1.5-1.6-2.1-1.2-1.4-1.4-1.4-3-0.4q-0.4 0.2-0.8 0.5zm-13 2.4c0.8-0.6 1.6-1.2 2.4-1.7 0.6-0.4 0.6-0.9 0.2-1.3q-1-1.6-2.2-3.1c-0.2-0.2-0.7-0.4-0.8-0.3q-2.3 1.3-4.6 2.7c-0.2 0.1-0.3 0.6-0.3 0.8q0.9 2 1.9 3.8c0.2 0.2 0.7 0.4 1 0.3 0.8-0.3 1.6-0.8 2.4-1.2zm-0.1 24.8c0.9-0.6 1.6-1.1 2.3-1.6 0.6-0.4 0.7-0.9 0.4-1.4q-0.9-1.6-1.9-3.2c-0.2-0.2-0.8-0.4-1-0.3q-2.4 1.3-4.7 2.8c-0.2 0.1-0.4 0.6-0.4 0.8q0.9 1.9 1.9 3.8c0.2 0.4 0.6 0.5 1.1 0.3 0.8-0.5 1.6-0.8 2.3-1.2zm22-13.3c0.9-0.6 1.7-1.2 2.4-1.8 0.4-0.2 0.9-0.5 0.5-1.1-0.7-1.1-1.5-2.1-2.3-3.2-0.3-0.6-0.9-0.6-1.4-0.3q-2.2 1.4-4.4 2.8c-0.4 0.3-0.5 0.7-0.2 1.2q1 1.6 2.1 3.1c0.3 0.4 0.7 0.6 1.3 0.3 0.6-0.4 1.4-0.7 2-1zm3.1 3.6c-0.7 0.4-1.4 0.8-2.1 1.3-0.8 0.5-1 0.9-0.6 1.6 0.5 1.1 1.2 2.1 1.8 3.1 0.3 0.5 0.8 0.7 1.3 0.4q2.5-1.5 4.9-3c0.2-0.1 0.4-0.7 0.3-0.9-0.6-1.1-1.3-2.3-2-3.4-0.6-0.7-0.9-0.7-1.7-0.2q-0.9 0.5-1.9 1.1zm-22.8 13.7c-0.9 0.7-1.6 1.1-2.2 1.7-0.2 0.2-0.4 0.8-0.3 1 0.6 1.2 1.3 2.4 1.9 3.5 0.3 0.5 0.7 0.5 1.1 0.2q2.5-1.4 4.9-2.9c0.4-0.3 0.6-0.7 0.3-1.2q-1-1.7-2-3.3c-0.3-0.4-0.7-0.6-1.1-0.3-1 0.5-1.9 0.9-2.6 1.3zm0.8-25.2c-1 0.7-1.9 1.3-2.8 1.9-0.5 0.4-0.7 0.9-0.4 1.5 0.4 0.8 0.8 1.7 1.3 2.5 0.8 1.1 0.8 1.4 2.4 0.6 0.1-0.1 0.2-0.2 0.4-0.2 1.5-1 3-1.9 4.4-2.8 0.2-0.2 0.4-0.8 0.2-1q-1-1.8-2.2-3.5c-0.1-0.2-0.6-0.3-0.9-0.2-0.8 0.3-1.7 0.8-2.4 1.2zm30 50.7c0.6-0.4 1.2-0.9 1.9-1.4 0.1-0.1 0.3-0.4 0.3-0.6 0.1-1.6-0.2-3.2-0.9-4.7q-0.3-0.6-0.9-0.3c-0.6 0.3-1.2 0.6-1.8 0.9-1.5 1-3 1.9-4.5 2.9-0.5 0.4-0.4 0.8-0.2 1.3q0.9 1.5 1.8 3c0.4 0.6 0.9 0.7 1.5 0.3 0.9-0.4 1.8-0.9 2.8-1.4zm-24.9-41.4c-1 0.6-1.9 1.3-2.9 2-0.5 0.3-0.5 0.7-0.3 1.1 0.4 0.8 0.8 1.6 1.3 2.4 1.1 1.5 1.1 1.4 2.8 0.7 0.1 0 0.2 0 0.3-0.1q2.4-1.5 4.8-3 0.6-0.4 0.2-1-1-1.8-2.1-3.5c-0.3-0.3-0.6-0.5-1.1-0.2-1 0.5-2 1-3 1.6zm5.7 9c-0.9 0.5-1.8 1-2.6 1.6-1 0.7-1.4 1.2-0.7 2.4 0.4 0.8 0.8 1.5 1.3 2.2 0.7 0.9 1 1 1.9 0.5 2.1-1.2 4-2.4 6-3.7 0.6-0.3 0.4-0.9 0.2-1.3-0.6-1-1.2-2-1.8-2.9-0.4-0.7-1-0.8-1.8-0.3q-1.3 0.7-2.5 1.5zm10.8 18.1q0 0.1 0 0.1c-0.9 0.6-1.9 1.1-2.8 1.7-0.8 0.6-0.9 1.1-0.5 2q0.7 1.2 1.5 2.4c0.6 0.8 1.1 0.9 2 0.4 1.9-1.1 3.9-2.3 5.8-3.5 0.5-0.3 0.6-0.7 0.3-1.2q-0.9-1.7-1.9-3.3c-0.3-0.4-0.7-0.6-1.2-0.3-1.1 0.6-2.1 1.2-3.2 1.7zm-4.7-9.5q-0.1 0-0.1-0.1c-1.3 0.9-2.6 1.9-3.9 2.7-0.6 0.4-0.4 0.9-0.2 1.3q0.9 1.6 1.8 3c0.4 0.6 0.9 0.7 1.5 0.4q3-1.9 6.1-3.7c0.5-0.3 0.6-0.8 0.3-1.3q-0.9-1.6-1.9-3.2c-0.3-0.4-0.6-0.7-1.2-0.3-0.8 0.4-1.6 0.8-2.4 1.2zm-29.6-57q-0.1 0.2-0.3 0.4c1.1 1.8 2.5 3.4 4.7 3.9 0.4 0.1 0.9-0.2 1.4-0.3-0.2-0.5-0.3-1.1-0.7-1.3-1.6-1-3.4-1.8-5.1-2.7z" />
		<path id="Path 6" class="s3"
			d="m829.9 365.8c0 0-19.8-9.8-19.5-26.5 0.2-16.8-9.4-17.3-10.8-28.6-1.3-11.4-6.6-14.3-6.6-14.3 0 0-10.9 22.2-19.1 27.3-8.1 5-16.6 15.8-18.1 18.8-1.5 3-3.1-6.6 7.5-19 10.7-12.4 10.9-21.4 15.4-30.4 4.4-9.1 11.3-19.8 19-15.2 7.6 4.5 10.9-1.6 12.1 2.5 0 0 26.2 47.7 23.9 69.1-2.3 21.3-3.8 16.3-3.8 16.3z" />
		<path id="Path 7" class="s2"
			d="m834.4 639.8c0 0-22.1 0.5-29.6-14.5-7.5-14.9-16.3-10.9-22.8-20.4-6.4-9.4-12.4-9.5-12.4-9.5 0 0 0.5 24.7-4.3 32.9-4.9 8.3-7.5 21.8-7.4 25.1 0.1 3.4-5.9-4.4-2.1-20.3 3.7-15.9-0.3-24-0.5-34.1-0.3-10 0.9-22.8 9.8-22.2 8.9 0.5 9-6.5 11.9-3.4 0 0 45.3 30.2 53.2 50.1 7.8 20 4.2 16.3 4.2 16.3zm-288.6-74.2c0 4.3 3.5 7.7 7.7 7.7h68.3c4.3 0 7.7-3.4 7.7-7.7 0-4.2-3.4-7.7-7.7-7.7h-68.3c-4.2 0-7.7 3.5-7.7 7.7z" />
		<path id="Path 8" class="s4"
			d="m545.8 565.6c0 4.3 3.5 7.7 7.7 7.7h68.3c4.3 0 7.7-3.4 7.7-7.7 0-4.2-3.4-7.7-7.7-7.7h-68.3c-4.2 0-7.7 3.5-7.7 7.7z" />
		<path id="Path 9" fill-rule="evenodd" class="s5"
			d="m545.6 565.6c0-4.3 3.6-7.9 7.9-7.9h68.3c4.4 0 7.9 3.6 7.9 7.9 0 4.4-3.5 7.9-7.9 7.9h-68.3c-4.3 0-7.9-3.5-7.9-7.9zm7.9-7.5c-4.1 0-7.5 3.4-7.5 7.5 0 4.2 3.4 7.5 7.5 7.5h68.3c4.2 0 7.5-3.3 7.5-7.5 0-4.1-3.3-7.5-7.5-7.5z" />
		<path id="Path 10" class="s5"
			d="m566 473.3c0 2.9 1.9 5.2 4.2 5.2h36.7c2.3 0 4.2-2.3 4.2-5.2 0-2.8-1.9-5.2-4.2-5.2h-36.7c-2.3 0-4.2 2.4-4.2 5.2z" />
		<path id="Path 11" fill-rule="evenodd" class="s5"
			d="m565.8 473.3c0-2.9 2-5.4 4.4-5.4h36.7c2.4 0 4.4 2.5 4.4 5.4 0 3-2 5.4-4.4 5.4h-36.7c-2.4 0-4.4-2.4-4.4-5.4zm4.4-5c-2.2 0-3.9 2.3-3.9 5 0 2.8 1.7 5 3.9 5h36.7c2.2 0 4-2.2 4-5 0-2.7-1.8-5-4-5z" />
		<path id="Path 12" class="s5"
			d="m542.5 641.6q2.2 1.1 4.6 2l38.7-188.2h3.9l36.8 202.1q4.2-0.3 8.4-0.6l-38.1-209.2h-17.9l-39.7 192.8q1.6 0.2 3.3 1.1z" />
		<path id="Path 13" class="s5"
			d="m591.8 652.5v-195.6c0-2.9-1.7-5.3-3.8-5.3-2.1 0-3.8 2.4-3.8 5.3v193.6q3.9 0.8 7.6 2z" />
		<path id="Path 14" class="s5"
			d="m584.5 650.6v-193.7c0-2.8 1.5-5.1 3.5-5.1 1.9 0 3.5 2.3 3.5 5.1v195.6q0.3 0 0.5 0.1v-195.7c0-3.1-1.8-5.6-4-5.6-2.2 0-4 2.5-4 5.6v193.6q0.2 0 0.5 0.1z" />
		<path id="Path 15" class="s5"
			d="m618.8 658c3.5-0.1 7-0.3 10.5-0.5l-68.2-48.9 58.5-37.5-5-6.3-67.7 43.5 69.1 49.6q1.4 0.1 2.8 0.1z" />
		<path id="Path 16" class="s5"
			d="m949.6 776.5l-102.8-100.2-122.3-14.2-11.6 2.7-97.5-8.9-148-35.4-39.8 21.3-43.5-3.6-106.3 133.8 117-108.1 40.7 3.6 45.2-25.7 141 31.9 118.7 2.6 99.3 14.2z" />
		<path id="Path 17" class="s5"
			d="m950.7 775.4q-31-30.1-61.9-60.3-17.4-17-34.9-33.9c-4.6-4.5-5.7-6.2-11.9-7q-51-5.9-101.9-11.8c-10.6-1.2-16.6-1.6-27.1 0.8-2.9 0.7-7.3-0.6-10.2-0.9q-13.3-1.2-26.5-2.4c-24.2-2.2-49-2.7-71.8-8.2q-52.6-12.6-105.1-25.1-15.5-3.8-31.1-7.5c-2.1-0.5-4.6 1.6-6.3 2.6q-12.8 6.8-25.5 13.6c-4.4 2.3-7.9 5-11.5 4.7q-13.7-1.1-27.4-2.2c-9.8-0.8-12.7-3-18.4 4.2q-51.3 64.5-102.5 129c-1.2 1.5 0.7 3.5 2.2 2.1q30.1-27.8 60.2-55.7 20.2-18.7 40.4-37.3 6.2-5.7 12.3-11.3 1.6-1.5 3.2-3c1.5-1.4-0.9-0.4 1.3-0.2q11.7 1 23.5 2c3.6 0.3 13.2 3.1 16.5 1.2q19.8-11.3 39.7-22.6c4-2.3 3.8-3.1 6.2-2.5q7.3 1.6 14.7 3.3 26.3 5.9 52.7 11.9 26.7 6.1 53.5 12.1c6.2 1.4 13.1 4.1 19.6 4.2q48.9 1.1 97.8 2.2c24.1 0.5 47 4.3 71.5 7.8q22.7 3.3 45.4 6.5c4.2 0.6 12.7 8.9 17.6 12.8q46.8 36.5 93.5 73c1.5 1.3 3.7-0.9 2.2-2.1q-34.2-26.7-68.3-53.4-18.4-14.4-36.7-28.7c-5.6-4.4-8.1-4.6-15.3-5.7q-44.8-6.4-89.6-12.8c-9.8-1.4-20.5-0.5-30.5-0.7q-29.3-0.6-58.6-1.3c-8.9-0.2-22 1.1-29.9-0.7q-15.4-3.5-30.8-6.9-51.4-11.7-102.9-23.3c-8.8-2-10.2-0.3-18.6 4.5q-12.1 6.9-24.3 13.8c-4.4 2.5-8.5 5.8-12.3 5.5q-12.3-1.1-24.7-2.1c-2.6-0.3-12.3-2.9-14.5-0.8q-9.5 8.8-19 17.6-49 45.3-98 90.6 1.1 1 2.2 2.1 52.8-66.4 105.6-132.9c1.1-1.4-0.3-0.4 0.3-0.4q4.3 0.4 8.5 0.7 14.4 1.2 28.8 2.3c11.6 1 22.5-8.4 32.5-13.7q5.1-2.8 10.3-5.5c1.6-0.9 3.7-1.3 2.3-1.6q5 1.2 9.9 2.4 23.8 5.7 47.5 11.4 44.8 10.7 89.7 21.4c8.4 2 17.8 1.8 26.4 2.6q28.5 2.6 57 5.1 7.3 0.7 14.5 1.4c4.2 0.3 8.5-3.1 12.5-2.6q17.6 2 35.1 4.1 29 3.3 58.1 6.7 10.3 1.2 20.7 2.4 3 0.4 6 0.7c1.8 0.2 2 0.7 1.2 0q51.4 50 102.7 99.9c1.4 1.4 3.6-0.7 2.2-2.1z" />
		<g id="Mask" clip-path="url(#cp2)">
			<path id="Path 19" fill-rule="evenodd" class="s5"
				d="m574.6 262.5c-9.9 7.4-21.9 12.8-33.7 16.8-11.3 3.8-23.6 4.5-35.4 6.6q-0.3 1.4-0.7 2.7c3.9 1.6 7.9 3.2 11.9 4.9-0.4 1.5-1.2 3.5-1.4 5.4-0.2 1.8 0.3 3.6 0.5 5.4 1.3-0.2 1.8-0.1 2.1-0.3q0.7-0.4 1.4-0.9c-2.6 8.9-0.9 19.9-0.8 30 0 5.7-0.6 10.3 0.2 15.1-2.5-0.3-5.7 0.1-10.4-0.2 6 5.1 9.2 7.8 13.3 11.2-13 6.2-14.8 15.6-12.7 27.8 1 5.6-2.4 11.9-3.4 17.9-1.3 8.5-3.9 17.2-3.2 25.7 2.1 24.9-1.4 48-15.2 69.4-3.5 5.4-5.7 12.2-6.4 18.7-1 10.3-4.7 17.4-14.6 22-6.2 2.8-13.3 7-16.4 12.6-13.9 25.4-26.4 51.6-39.9 77.2-2.4 4.5-7.3 10.3-11.4 10.5-3.7 0.3-8.5-5.6-11.6-9.7-2.6-3.5-3.3-8.3-5-12.5-9.7-23-19.2-46-29.4-68.8-1.7-3.7-6.4-7.4-10.5-8.6-11.7-3.3-16.8-10.5-17.1-22.3-0.1-4.7-0.1-10.5-2.8-13.8-15.8-19.9-20.3-42.7-18.8-67.1 0.8-13.5 1.9-26.6-5.4-39-1.6-2.6-2.2-6.5-1.7-9.5 2.3-12.7 2-24.2-12.1-30.9 4.3-3.5 7.5-6.1 10.7-8.7-4.2-2.1-7.7-2.2-10.3-0.7-35.2 19.6-84.9 4.4-104.8-31.5-5.8-10.6-3.2-16.8 6.6-21.8 32-16.3 63.5-17.4 94.2 3.2 3.1 2.1 6.3 4 10.9 6.8-0.5-5.9-0.8-9.5-1.1-12 3.9-2 7.5-3.8 10.8-5.4-21.2-6.7-41.7-10.4-59.5-19.4-28-14.2-34.7-37.3-23-66.3 3.5-8.7 7.6-17.2 11.9-25.6 1.6-2.9 4.4-5.2 6.6-7.8q2.2 0.2 4.5 0.3c1.9 10 5.2 20 5.6 30.1 0.9 26.6 8.2 35.9 35 38 24.2 1.9 47.6 0.4 72.2-5.7 28.1-6.9 58.9-3.1 88.5-2.9 7.4 0.1 14.6 4.7 22 7.1 2.6 0.9 5.4 2.4 8.1 2.3 16.3 0 32.8 0.7 49-1 29.5-3.1 35.5-10.9 34.9-39.9-0.3-11 0.9-21.7 13.4-31.3 6.9 14.5 13.6 26.9 18.9 39.9 8.8 21.6 4.1 41.9-14.5 56zm6.2-56.4c-3.2-8.1-7.3-15.9-13.9-23.3-0.6 6.7-2.2 13.5-1.5 20 2.1 22-6 37.5-27 41.4-27.9 5.2-56.2 8.7-84.4-1.9-10.3-3.9-22.4-3.1-33.8-3.6-12.1-0.6-24.3-1-36.4 0.1-12.7 1.1-25.3 3.9-38 6-31.7 5.2-63.5 8-93-8-11-5.9-13.5-17.7-12.6-30 0.6-8.2 0.1-16.4-1.4-24.5-28.7 38.2-23.6 62.6 12.8 77.5 14.1 5.8 30 7.1 45.2 10.1 5.5 1 11.2 0.8 17 1.1-2.4 15.9-0.8 31.4-12 44.7 29.4-1.6 38 16.7 44.3 38.1 8.7 29.5 7.9 59.5 6.9 89.6 14.4-34.3 11.9-68.6-0.1-103.3 11 9.6 17.9 26 18.5 47.9 0.5 21.1-4.4 40.5-15.6 59.5-11.9 20.2-20.7 42.7-20.3 67.3 0.1 14 7.4 20.1 20.6 15.8 17.6-5.7 33.3-14.4 35.2-35.6h22.5c2.2 20.8 17.5 29.8 35.1 35.8 12.7 4.4 21.9-2 21-15.4-0.9-12.9-4.4-25.7-8-38.2-2.9-10.1-7.8-19.7-11.7-29.5l-0.3 0.2c1-6.5 2.4-13 3-19.6 2.2-24.4 2.2-49 6.5-72.9 5.1-28.5 14.2-35.2 45-39.4-3.7-6.8-6.8-12.6-9.5-17.7-0.9-9.3-1.6-18.4-2.3-25.7 17.6-3.4 35.7-6.1 53.4-10.5 7.7-1.9 15.2-6.3 21.8-11 17-12 20.8-25.5 13-45zm-88.4 116.6c-9.6-0.8-15.4 7-17.4 19.2-0.6 4.1-4.4 7.6-6 11.7-1.7 4-2.5 8.4-2.5 13.7 7.2-17.8 16.3-32.2 39.1-24.2-0.8-10.6-2.1-19.5-13.2-20.4zm12.2 37.2c-8.4 3.1-15.5 7.3-22.8 7.9-12.6 1-19.6 6.6-22.3 18.5-6.3 27.4-5.8 54.2 7 80 2.3 4.6 4.2 9.6 6.2 14.4q1.9 0.3 3.8 0.7c9.5-41.1 19-82.3 28.1-121.5zm-65 177.2c-24.5 12.8-48.4 14.6-73.3-1.3 5.3 18.1 17.8 25 38.8 24.5 19.1-0.4 30.7-7.5 34.5-23.2zm-92.3-146.1c-3.8-17.6-9.9-21.8-27.5-23.9-6.4-0.8-12.2-5.8-20-9.8 9.7 40.9 19.5 82.1 29.9 126 18.3-30.9 24.6-60.5 17.6-92.3zm-47.8-47.8c23.5-8 32.2 6.6 40.3 23.8-0.2-2.4-0.1-4.9-0.7-7.2-2.3-8.3-3.1-17.8-7.9-24.3-4.5-6-13.4-11.7-20.4-11.7-4.4 0-8.9 10.5-13.4 16.4q1.1 1.5 2.1 3zm-18.5-17.3c-8.9 1.2-14.4 1.9-21.8 2.9 3.9-5.5 6.9-9.8 11.7-16.6-7 2.1-11.1 4.1-15.3 4.5-3.1 0.2-6.3-1.7-9.4-2.6-2.5-0.7-5.1-1.9-7.6-1.8-10.9 0.4-21.7 1.2-32.6 1.9q-0.4 1-0.8 2c9 3.3 18 6.7 24.8 9.2 4 5.1 6.4 11.3 10 12.1 14 3.4 27.3 1.1 41-11.6zm208.2 33.4c8.3 0 12.1-10.3 1.9-10.3-8.3 0-12.1 10.3-1.9 10.3z" />
			<path id="Path 20" class="s5"
				d="m378.5 507.9c10-11.6 7.7-20.1-6-24.3-2.7-0.9-4.8-3.3-7.2-5.1 2.3-2 4.3-4.7 6.9-5.9 2.5-1.2 5.6-0.9 8.5-0.9 14.9-0.1 29.9-0.4 44.9 0.1 5.4 0.3 10.8 2.7 16.1 4-8.1 7.8-15.1 13.4-20.4 20.3-1.5 1.9 2.3 7.7 3.9 12.7 4.9-2.9 8.1-5.6 11.7-6.8 8.2-2.8 14-7.1 12.6-16.7-1.3-9.6-5.3-18.8-15.6-19.5-19.9-1.3-39.9-1.4-59.8-0.2-10.9 0.6-16.9 9.1-18.1 20.2-1.1 10.5 6.1 14.1 14.1 17.3 3 1.2 5.6 3.2 8.4 4.8z" />
			<path id="Path 21" class="s5"
				d="m449.9 447.9c0.2-1.5 1-3.2 0.6-4.5-11.9-33.9-9.6-67.4 2-100.7 0.3-1.1 0.1-2.3 0.2-3.8-23.6 25.3-24.5 74.1-2.5 108.7 0 0.1-0.3 0.3-0.3 0.3z" />
		</g>
		<path id="Path 23" class="s6"
			d="m491.1 349c6.7 0 7.3 4.5 4.6 7.6 1.6-1.4 2.4-3.2 1.9-4.9-0.8-2.6-4.7-3.9-8.6-2.7-3.7 1.1-6.1 3.8-5.9 6.3 0-2.9 3.2-6.3 8-6.3z" />
		<path id="Path 24" fill-rule="evenodd" class="s2"
			d="m437.2 410c0.4 9.2 13 34.1 13 34.1l6.8 11.2c-0.7-6.5-4.9-51-0.5-66.1 4.8-16.2 7.3-22 7.3-22l13.7-0.5-6.5 4.5c0 0-27.5 44.8-2.1 96.2l10.1 17.5-5.6-2.4 6.8 11.2c0 0-11.3 62.9-11.5 26.4-0.2-36.5-6.9-28.1-28.6-89-21.8-61 13.3-94.5 13.3-94.5zm194.9-97.9c-7.1 16.3-45 62.4-98.7 42.1 0 0-14.5-4.9-20.3-9.7-5.8-4.8-1.6-36-1.6-36 0 0 26.1-22.9 57.6-24.8 30-1.9 63 11.7 64.2 23.3 0 0-10.1-1.9-15.6 7.7 0 0-3.5 5.8-0.3 2.7 0 0 4.9-6.4 10.3-6zm-27.2 20.4c-4-2.3-7.2-5.4-9.3-9.3-2.1-3.9-3.7-8-5.2-11.4-1.9 2.8 2.5 12.2 4.5 16-2.2-1.2-3.9-2.6-5.4-4.3-4.9-5.8-8-12.2-7.5-20 0.2-3.1 1.6-5.8 3.4-8.3 1.3-1.9 2.7-3.8 4.2-6.1-9.2 5.2-12.1 11.4-11.1 19.1 0.9 7.8 3.9 14.6 10.2 19.7 4.7 3.8 10.2 5.1 16.2 4.6zm-27.5-6.4c-5.1-4-5.6-13.6-3.7-21.4 0.2-0.9 0-1.8-0.5-2.5-0.5-0.6-1.1-0.9-1.7-0.9-0.7 0-1.6 0.5-1.9 1.7-0.6 2.4-1 4.9-1.1 7.5-25.4-9.9-34.5-3.3-34.5-3.3 2 26.9 15.7 27.2 15.7 27.2 12.7 0.9 19.3-4.8 22.1-8.1 0.9 1.6 2.1 3.1 3.6 4.2 0.5 0.4 0.9 0.5 1.2 0.5 0.8 0 1.4-0.6 1.7-1.4 0.4-1 0.2-2.6-0.9-3.5zm33.6-23c0-2.8-2.3-5.1-5.2-5.1-2.9 0-5.2 2.3-5.2 5.1 0 2.9 2.3 5.2 5.2 5.2 2.9 0 5.2-2.3 5.2-5.2zm102.8 33.3c-0.3-0.7-0.4-1.4-0.4-2.3 13 18.8 32.5 28.1 52.7 36.3 17.8 7.2 34 17.2 47.9 30.6 17.5 16.9 22.9 37.7 17 61.1-0.1 0.7-0.3 1.3-0.5 1.9q-2.1-2.7-4.2-5.3c1.7-5.7 1.9-11.6 0.8-17.9-3.1-17.2-13-30-27-39.9-12.7-9.1-26.7-15.9-41.4-21.1-21.7-7.6-37.2-21.4-44.9-43.4z" />
		<path id="Path 25" class="s4"
			d="m758.7 379.8c14.7 5.1 28.7 11.9 41.4 21 14 9.9 23.9 22.7 27 39.9 1.1 6.3 0.9 12.2-0.8 17.9q2.1 2.6 4.2 5.3c0.2-0.6 0.4-1.2 0.5-1.8 5.9-23.5 0.5-44.2-17-61.2-13.8-13.4-30.1-23.4-47.9-30.6-20.2-8.2-39.6-17.5-52.7-36.3 0 0.9 0.1 1.6 0.4 2.3 7.7 22 23.2 35.8 44.9 43.5z" />
		<path id="Path 26" class="s5"
			d="m759.5 361.4c-16.1-9.2-27.6-21.1-29.1-40-1.4-17.9-1.7-35.9-4.1-53.6-1.6-12-5.1-23.8-9.4-35.1-4.6-12.5-13.7-21.4-26.6-26.1q0.3-0.7 0.6-1.4c4.8 2.2 9.9 3.8 14.2 6.6 8.7 5.5 14.8 13.6 19.5 22.7 11 21.2 16.6 44 18.2 67.7 1 13.9 1.6 27.9 7.6 40.8 2.8 5.9 5.8 11.7 9.1 18.4z" />
		<path id="Path 27" class="s5"
			d="m734.4 478.3c-32.1-6.1-58.8-18.9-73.5-49.4-5.5-11.4-5.7-23.6-2.3-35.7 4.7-17 19.3-26.9 37.9-25.8 2.9 0.1 5.7 0.6 8.6 1.9-2.1 0.1-4.3 0.2-6.4 0.4-24 1.5-37.7 20-32 43.5 4.5 18.5 17 30.5 33.5 38.5 7.1 3.5 15.1 5.3 22.6 8.2 1.8 0.6 3.7 2.3 4.7 4 2.4 4.2 4.3 8.8 6.9 14.4z" />
		<path id="Path 28" class="s5"
			d="m671.1 360.8c-5.7 6.1-10.7 11.6-16 17.2-0.7-5.1-1.6-10.7-2.1-16.2-1.5-18.9-1.5-37.8 3.5-56.3 3.8-14.4 10.5-27.2 21.9-37 7.4-6.4 12.1-13.9 11.5-24.2-0.2-3.2 1-6.6 1.9-9.7 1.7-5.5 3.7-11 5.2-15.7 1.6 3.2 1.3 8-0.6 12.3-2.6 6.3-2.8 12.6-2.2 19.3 0.3 3.6-0.8 7.6-2.2 11-1.3 3.2-3.5 6.2-5.8 8.8-20.3 23.4-23.4 50.7-17.8 79.8 0.8 4 1.9 7.8 2.7 10.7z" />
		<path id="Path 29" class="s5"
			d="m696.9 355.6c-4.4 0.6-9 1-13.5 2-3 0.7-4.3 0-5.4-2.8-4.6-12.3-4.6-24.8-2.4-37.4 1.9-10.5 5.7-20.5 11.4-31.1-4.7 25.2-5.4 48.5 9.9 69.3z" />
		<path id="Path 30" class="s5"
			d="m708.7 320.4c-8.1-11.7-9.6-24.4-4.8-37.3 5.8-15.7 8.6-31.4 3.7-47.9 6.1 8.1 8.2 17.3 7.8 26.9-0.2 5.6-1 11.3-3 16.4-5.4 13.7-6.9 27.5-3.7 41.9z" />
		<path id="Path 31" class="s3"
			d="m651 215.8c0 0-12.6 3.8-14.5 11-2 7.3 4.1 1 8.3 0.2 4.2-0.8 9.1-0.2 9.1-0.2 0 0 2-4.1 4.5-5.2 2.6-1.2-6.5-4.4-7.4-5.8zm0-3.9c0 0 3.6-9.6 15.1-12.1 11.6-2.6-0.8-10.5-5.3-6-4.5 4.5-8.1 3.7-10.1 3.6-1.9-0.2-1.4 1.7-2.4 3-0.9 1.3-4.5-1.8-5.1 1.1-0.6 2.9 0.2 11.2 0.5 11.7 0.3 0.5 0.5 2.7 7.3-1.3z" />
		<path id="Path 32" fill-rule="evenodd" class="s3"
			d="m678.9 237.6c-3.8 4.8-2.5 22.1-2.5 22.1 0 0-1.3 5.8-3.9-4.8-2.5-10.6-9.3-7.7-15.4-19.2-6.1-11.6 10.6-14.5 2.6-17.7-8-3.2-6.1-5.7-6.1-5.7 11.6-14.5 19.9-10.3 29.2-2.6 9.3 7.7 0 23.1-3.9 27.9zm-6.2-26c0-1.4-1.1-2.5-2.5-2.5-1.4 0-2.5 1.1-2.5 2.5 0 1.4 1.1 2.6 2.5 2.6 1.4 0 2.5-1.2 2.5-2.6zm4.3 58.2c0 0 12.9-9.8 11.5-25.1-1.4-15.4 8.5-25.8 8.5-25.8 0 0 2.7 3 0.8 8.5-1.9 5.4-4.7 12-3.9 18.7 0.9 6.6 2.5 13.8-11.5 25.8z" />
		<path id="Path 33" class="s2"
			d="m727.5 463.9c0 0-16.2-51.9-14.3-53.2 2-1.4-16.5-6.6-25.1 7.3 0 0 18.5-6 19.9-1.4 1.3 4.7 10.5 47 14.5 51.6m8 9.7c0 0 7 2 9 1.4 2-0.7-14.1-8.4-25.4-68.4 0 0-3.9-3.8-12.1-1.6-8.2 2.3 9.3 4.2 9.3 4.2l1.3 1.6m-19.6-2.5c0 0-1.9 0.9-5.3 5.8-3.5 5 15.2-3.7 17.3-2.9 2.2 0.9 3.7 3.7 4.9 9.1 1.2 5.3 3.8-1.6 3.8-1.6l-2.5-8.5-3.4-1.4-8.6-2.2" />
		<path id="Path 34" class="s3"
			d="m719 224.6c0 0-7.2-14.8-32.8-21.4-25.6-6.6 20.8 8.7 29.3 29.1 8.4 20.5 0.6-5.3 0.6-5.3" />
		<path id="Path 35" fill-rule="evenodd" class="s2"
			d="m609.9 425.1c-6.1 12.2-17.2 15.1-26.7 11-9.6-4-15.1-15.6-11.3-24.3 3.7-8.7 8.6-9.4 9.4-17.4 0 0 2.2-0.6 4.3 5.6 0 0-1.6-16.7 12-19.9 0 0-2.3 7.8 4.6 16.8 0 0 13.8 15.9 7.7 28.2zm-10.2-18.1q0-1.7-1.3-2.8-1.2-1.2-3-1.2h-8.5q-1.8 0-3.1 1.2-1.2 1.1-1.2 2.8v21.4q0 1.6 1.2 2.8 1.3 1.2 3.1 1.2h8.5q1.8 0 3-1.2 1.3-1.2 1.3-2.8v-11.9h-8.6v5.4h2.8v5h-5.5v-18.5h5.5v4.5h5.8z" />
		<path id="Path 36" fill-rule="evenodd" class="s7"
			d="m362.5 1044.7v-29.4h3.8v12.1h15.3v-12.1h3.9v29.4h-3.9v-13.9h-15.3v13.9zm34.2-4.1v4.1h-4.1v-4.1zm12.6 4.1l11.3-29.4h4.2l12 29.4h-4.4l-3.4-8.9h-12.3l-3.2 8.9zm8.4-12.1h10l-3.1-8.1q-1.4-3.7-2.1-6.1-0.5 2.8-1.5 5.6zm20.7 20.3l-0.4-3.4q1.2 0.3 2.1 0.3 1.2 0 1.9-0.4 0.7-0.4 1.2-1.1 0.3-0.6 1.1-2.7 0.1-0.3 0.3-0.9l-8.1-21.3h3.9l4.4 12.3q0.9 2.4 1.6 4.9 0.6-2.4 1.5-4.8l4.5-12.4h3.6l-8.1 21.6q-1.3 3.5-2 4.9-1 1.7-2.2 2.6-1.2 0.8-3 0.8-1 0-2.3-0.4zm34.6-8.2v-3.2q-2.5 3.7-6.7 3.6-1.9 0.1-3.5-0.7-1.7-0.7-2.5-1.8-0.8-1.1-1.1-2.7-0.2-1-0.2-3.3v-13.2h3.6v11.8q0 2.8 0.2 3.8 0.4 1.4 1.5 2.2 1.1 0.8 2.7 0.8 1.6 0 3-0.8 1.5-0.8 2-2.3 0.6-1.4 0.6-4.1v-11.4h3.6v21.3zm8.9 0v-21.3h3.3v3q2.3-3.5 6.7-3.5 1.9 0 3.6 0.7 1.6 0.7 2.4 1.8 0.8 1.1 1.1 2.7 0.2 1 0.2 3.5v13.1h-3.6v-13q0-2.2-0.4-3.3-0.5-1.1-1.5-1.7-1.1-0.7-2.5-0.7-2.3 0-4 1.5-1.7 1.5-1.7 5.6v11.6zm30.7-3.3l0.5 3.2q-1.5 0.3-2.7 0.4-2-0.1-3.1-0.7-1-0.6-1.5-1.6-0.4-1-0.4-4.3v-12.2h-2.7v-2.8h2.7v-5.3l3.6-2.1v7.4h3.6v2.8h-3.6v12.4q0 1.6 0.2 2 0.2 0.5 0.6 0.7 0.4 0.3 1.2 0.3 0.6 0 1.6-0.2zm17.4 0.6q-2 1.7-3.9 2.4-1.8 0.7-3.9 0.7-3.5 0.1-5.4-1.7-1.9-1.7-1.9-4.3 0-1.6 0.7-2.9 0.7-1.3 1.9-2.1 1.1-0.7 2.6-1.1 1-0.3 3.2-0.6 4.3-0.5 6.4-1.2 0-0.8 0-1 0-2.2-1-3.1-1.4-1.2-4.1-1.2-2.6 0-3.8 0.9-1.2 0.9-1.8 3.1l-3.5-0.4q0.5-2.3 1.6-3.7 1.1-1.4 3.2-2.1 2.1-0.8 4.8-0.8 2.7 0 4.4 0.7 1.7 0.6 2.5 1.6 0.8 0.9 1.2 2.4 0.1 0.9 0.1 3.3v4.9q0 5 0.3 6.3 0.2 1.3 0.9 2.6h-3.8q-0.5-1.2-0.7-2.7zm-0.3-8q-2 0.8-5.9 1.4-2.2 0.3-3.1 0.7-1 0.4-1.5 1.1-0.5 0.8-0.5 1.8 0 1.4 1.1 2.4 1.1 0.9 3.2 0.9 2.1 0 3.7-0.9 1.7-0.9 2.4-2.5 0.6-1.2 0.6-3.6zm9.2 10.7v-21.3h3.3v3q1-1.6 2.6-2.5 1.7-1 3.8-1 2.4 0 3.9 1 1.5 1 2.1 2.8 2.5-3.8 6.6-3.8 3.1 0 4.8 1.8 1.7 1.7 1.7 5.4v14.6h-3.5v-13.4q0-2.2-0.4-3.1-0.3-1-1.3-1.6-0.9-0.5-2.1-0.5-2.3 0-3.7 1.5-1.5 1.4-1.5 4.7v12.4h-3.6v-13.8q0-2.4-0.9-3.6-0.9-1.2-2.9-1.2-1.5 0-2.8 0.8-1.3 0.8-1.9 2.3-0.6 1.6-0.6 4.5v11zm37.8-21.3v21.3h-3.6v-21.3zm0-8.1v4.2h-3.6v-4.2zm20.1 22.5l3.7 0.5q-0.9 3.3-3.3 5.1-2.4 1.8-6.1 1.8-4.6 0-7.4-2.9-2.7-2.9-2.7-8.1 0-5.3 2.8-8.3 2.7-3 7.1-3 4.3 0 7 2.9 2.7 3 2.7 8.2 0 0.3 0 1h-15.9q0.2 3.5 2 5.3 1.8 1.9 4.5 1.9 1.9 0 3.3-1 1.4-1.1 2.3-3.4zm-11.9-5.8h11.9q-0.2-2.7-1.4-4-1.7-2.1-4.4-2.1-2.5 0-4.2 1.7-1.7 1.6-1.9 4.4zm20.1 12.7v-21.3h3.3v3q2.3-3.5 6.7-3.5 1.9 0 3.6 0.7 1.6 0.7 2.4 1.8 0.8 1.2 1.1 2.7 0.2 1 0.2 3.5v13.1h-3.6v-12.9q0-2.3-0.4-3.3-0.5-1.1-1.5-1.8-1.1-0.6-2.5-0.6-2.3 0-4 1.4-1.7 1.5-1.7 5.6v11.6zm30.7-3.2l0.5 3.2q-1.5 0.3-2.7 0.3-2 0-3.1-0.6-1-0.7-1.5-1.7-0.4-1-0.4-4.2v-12.3h-2.7v-2.8h2.7v-5.2l3.6-2.2v7.4h3.6v2.8h-3.6v12.5q0 1.5 0.2 1.9 0.1 0.5 0.6 0.7 0.4 0.3 1.2 0.3 0.6 0 1.6-0.1zm2.2-7.4q0-6 3.3-8.8 2.7-2.4 6.6-2.4 4.4 0 7.2 2.9 2.8 2.9 2.8 8 0 4.1-1.2 6.4-1.3 2.4-3.6 3.7-2.4 1.3-5.2 1.3-4.4 0-7.2-2.9-2.7-2.9-2.7-8.2zm3.7 0q0 4 1.8 6.1 1.7 2 4.4 2 2.7 0 4.5-2 1.8-2.1 1.8-6.3 0-3.9-1.8-5.9-1.8-2.1-4.5-2.1-2.7 0-4.4 2-1.8 2.1-1.8 6.2zm49.8 7.1v3.5h-19.4q-0.1-1.3 0.4-2.5 0.7-2 2.4-3.9 1.6-1.9 4.7-4.5 4.8-3.9 6.4-6.2 1.7-2.3 1.7-4.3 0-2.2-1.5-3.6-1.5-1.5-4-1.5-2.6 0-4.2 1.6-1.5 1.5-1.5 4.3l-3.8-0.4q0.4-4.1 2.9-6.3 2.5-2.2 6.7-2.2 4.2 0 6.7 2.4 2.4 2.3 2.4 5.8 0 1.7-0.7 3.4-0.7 1.7-2.4 3.6-1.7 1.9-5.5 5.2-3.3 2.7-4.2 3.7-0.9 0.9-1.5 1.9zm3.8-11q0-5.2 1.1-8.4 1.1-3.1 3.2-4.9 2.1-1.7 5.3-1.7 2.4 0 4.1 1 1.8 0.9 3 2.7 1.1 1.8 1.8 4.4 0.7 2.5 0.7 6.9 0 5.2-1.1 8.4-1 3.1-3.2 4.9-2.1 1.7-5.3 1.7-4.2 0-6.7-3-2.9-3.7-2.9-12zm3.7 0q0 7.2 1.7 9.6 1.7 2.4 4.2 2.4 2.5 0 4.2-2.4 1.7-2.4 1.7-9.6 0-7.2-1.7-9.6-1.7-2.4-4.2-2.4-2.5 0-4 2.1-1.9 2.7-1.9 9.9zm38.1 11v3.5h-19.4q-0.1-1.3 0.4-2.5 0.7-2 2.4-3.9 1.6-1.9 4.7-4.5 4.8-3.9 6.5-6.2 1.6-2.3 1.6-4.3 0-2.2-1.5-3.6-1.5-1.5-4-1.5-2.6 0-4.2 1.6-1.5 1.5-1.5 4.3l-3.7-0.4q0.3-4.1 2.8-6.3 2.5-2.2 6.7-2.2 4.2 0 6.7 2.4 2.4 2.3 2.4 5.8 0 1.7-0.7 3.4-0.7 1.7-2.4 3.6-1.6 1.9-5.5 5.2-3.3 2.7-4.2 3.7-0.9 0.9-1.5 1.9zm15.4 3.5v-7h-12.7v-3.3l13.4-19.1h2.9v19.1h4v3.3h-4v7zm0-10.3v-13.3l-9.2 13.3zm21.9-2.1v3.6h-11v-3.6zm21.9 8.9v3.5h-19.4q-0.1-1.3 0.4-2.5 0.8-2 2.4-3.9 1.6-1.9 4.7-4.5 4.8-3.9 6.5-6.2 1.7-2.3 1.7-4.3-0.1-2.2-1.6-3.6-1.5-1.5-4-1.5-2.6 0-4.1 1.6-1.6 1.5-1.6 4.3l-3.7-0.4q0.3-4.1 2.8-6.3 2.5-2.2 6.7-2.2 4.2 0 6.7 2.4 2.5 2.3 2.5 5.8 0 1.7-0.8 3.4-0.7 1.7-2.4 3.6-1.6 1.9-5.5 5.2-3.3 2.7-4.2 3.7-0.9 0.9-1.5 1.9zm3.9-11q0-5.2 1-8.4 1.1-3.1 3.2-4.9 2.1-1.7 5.3-1.7 2.4 0 4.2 1 1.8 0.9 2.9 2.7 1.2 1.8 1.8 4.4 0.7 2.5 0.7 6.9 0 5.2-1.1 8.4-1 3.1-3.1 4.9-2.1 1.7-5.4 1.7-4.2 0-6.6-3-2.9-3.7-2.9-12zm3.7 0q0 7.2 1.7 9.6 1.7 2.4 4.1 2.4 2.5 0 4.2-2.4 1.7-2.4 1.7-9.6 0-7.2-1.7-9.6-1.7-2.4-4.2-2.4-2.5 0-4 2.1-1.8 2.7-1.8 9.9zm38 11v3.5h-19.4q0-1.3 0.4-2.5 0.8-2 2.4-3.9 1.6-1.9 4.7-4.5 4.8-3.9 6.5-6.2 1.7-2.3 1.7-4.3 0-2.2-1.6-3.6-1.5-1.5-4-1.5-2.6 0-4.1 1.6-1.6 1.5-1.6 4.3l-3.7-0.4q0.4-4.1 2.9-6.3 2.4-2.2 6.6-2.2 4.3 0 6.7 2.4 2.5 2.3 2.5 5.8 0 1.7-0.7 3.4-0.8 1.7-2.4 3.6-1.7 1.9-5.6 5.2-3.2 2.7-4.2 3.7-0.9 0.9-1.5 1.9zm4.1-22v-3.5h19v2.8q-2.8 3-5.5 7.9-2.8 5-4.3 10.2-1.1 3.7-1.4 8.1h-3.7q0.1-3.5 1.4-8.4 1.3-4.9 3.7-9.4 2.5-4.6 5.2-7.7z" />
		<path id="Path 37" fill-rule="evenodd" class="s2"
			d="m281.8 935.5q0.2 0.2 0.2 0.5 0 0.7-0.9 1.4-0.9 0.8-1.9 1.8-1.1 0.9-2 2-0.9 1.1-0.9 2.4 0 0.7 0.5 1.1 0.6 0.3 1.2 0.7 0.6 0.5 1.1 1.3 0.5 0.8 0.5 2.3 0 2-1.2 3.3-1.2 1.3-2.9 1.3-1.6 0-2.7-1.5-1.1-1.4-1.1-3.9 0-2.6 1.1-4.9 1.1-2.3 3.5-4.6 1.7-1.8 3-2.6 1.3-0.9 2-0.9 0.3 0 0.5 0.3zm-11.5 0q0.3 0.3 0.3 0.7 0 0.5-0.9 1.3-0.9 0.7-2 1.7-1.1 0.9-2 2-0.9 1.1-0.9 2.3 0 0.8 0.6 1.1 0.5 0.4 1.1 0.8 0.7 0.5 1.2 1.3 0.5 0.8 0.5 2.3 0 2-1.2 3.3-1.3 1.3-3 1.3-1.6 0-2.7-1.5-1.1-1.4-1.1-3.9 0-2.6 1.1-4.9 1.1-2.3 3.5-4.6 1.7-1.8 3-2.6 1.3-0.9 2-0.9 0.3 0 0.5 0.3zm38.7 10.1q-0.3 1.8-1.3 1.8-0.6 0-0.9-0.4-0.2-0.4-0.3-1-0.1-0.6-0.2-1.4-0.1-0.8-0.2-1.6-0.8-4.8-5.3-4.8-2.4 0-4.2 1.7-1.8 1.8-1.8 4.4 0 2.1 1.4 4.3 1.5 2.2 3.7 5 1.3 1.7 2.5 3.2 1.2 1.5 2 3.2 0.9 1.6 1.3 3.3 0.5 1.7 0.5 3.7 0 2.8-1.1 5.4-1.1 2.5-3.2 4.4-2 1.9-4.8 3.1-2.8 1.1-6.2 1.1-5.5 0-8.1-1.2-2.6-1.1-2.6-3.7v-0.2l0.1-4.9q0.1-1.8 0.4-2.6 0.3-0.9 1.3-0.9 0.6 0 0.9 0.5 0.3 0.4 0.5 1.1 0.2 0.7 0.3 1.7 0 1 0.2 2.1 0.6 2.6 2.2 4 1.7 1.4 4.2 1.4 1.6 0 3-0.6 1.4-0.6 2.5-1.7 1-1 1.6-2.5 0.5-1.4 0.5-3.1 0-1.5-0.4-2.9-0.4-1.3-1.1-2.5-0.7-1.2-1.7-2.3-0.9-1.2-1.9-2.5-2.8-3.4-4.4-6.4-1.5-3-1.5-6.5 0-2.6 0.9-4.8 1-2.2 2.7-3.8 1.7-1.6 4-2.6 2.4-0.9 5.1-0.9 2.1 0 4 0.5 1.9 0.5 3.3 1.2 1.4 0.7 2.3 1.5 0.8 0.8 0.8 1.4 0 0.2-0.1 0.7 0 0.5-0.2 1.4zm10.3 22.3v0.8q0 3.7 1.5 5.7 1.4 1.9 4 1.9 1.5 0 3.3-1 1.9-1.1 3.8-3.2 0.9-1 1.3-1.6 0.5-0.6 1-0.6 0.7 0 0.7 0.9 0 1.2-2.2 4-2.5 3.1-5.7 4.7-3.2 1.6-6.5 1.6-4.4 0-7.2-3.2-2.8-3.2-2.8-8.8 0-4.6 2-8.9 1.9-4.2 5.5-7.5 2.9-2.4 6.1-3.7 3.2-1.3 6.3-1.3 3.9 0 6 2 2.1 2.1 2.1 5.5 0 2.9-1.2 4.8-1.1 2-3.5 3.3-2.3 1.3-6 2.2-3.6 0.9-8.5 1.5 0 0.5 0 0.9zm0.8-3.6q2.3 0 4.1-1 1.9-0.9 3.3-2.5 1.4-1.6 2.2-3.6 0.7-2 0.7-4 0-1.4-0.5-2.2-0.5-0.9-1.3-0.9-2.2 0-4.7 3.6-2.5 3.6-4.1 10.6zm22.1 15.3q-0.2 0-0.4-0.3-0.2-0.3-0.2-0.6v-0.3q0-0.3 0.1-0.7l4.5-20.4q0.4-2.1 0.4-2.6 0-1.3-0.6-1.3-0.7 0-1.4 0.9-0.7 0.9-1.3 1.9-0.6 1.1-1.2 1.9-0.6 0.9-1 0.9-0.7 0-0.7-0.9 0-0.3 0.7-1.9 0.8-1.7 2.5-3.8 1.9-2.4 3.8-3.6 1.8-1.1 3.4-1.1 1.5 0 2.4 1 0.9 1.1 0.9 3.1 0 1.8-0.3 3.5-0.4 1.8-0.7 3.4l-0.6 3.1q2.9-7 5.5-10.6 2.7-3.6 5.6-3.6 1.8 0 2.8 1.2 1.1 1.3 1.1 3.5 0 3-1.3 4.8-1.2 1.7-3 1.7-2.2 0-2.7-2.8-0.1-0.9-0.2-1.5-0.1-0.5-0.5-0.5-1 0-3.1 3.5-2.1 3.6-4.4 10.5-1.2 3.4-1.8 5.7-0.5 2.2-0.9 3.5-0.4 1.3-0.8 1.8-0.4 0.6-1.2 0.6zm31.2-24q0.4-1.5 0.4-1.9 0-0.7-0.4-0.7-0.7 0-1.3 0.8-0.7 0.8-1.4 1.7-0.7 0.9-1.3 1.7-0.7 0.7-1.2 0.7-0.5 0-0.5-0.8 0-0.7 0.9-2.2 0.9-1.5 2.4-3 1.5-1.6 3.4-2.7 2-1.2 4.2-1.2 3.4 0 3.4 4.2 0 1.5-0.5 3.4-0.5 1.9-1.2 4.2l-2.3 8q-1.2 4.5-1.2 6.6 0 1.1 0.6 1.9 0.5 0.7 1.6 0.7 1 0 2.6-1.2 1.6-1.3 3.4-3.7 2.4-3.4 3.6-6.7 1.2-3.4 1.2-5.3 0-1.2-0.3-2.3-0.3-1.1-0.7-2.2-0.3-1-0.6-2-0.3-0.9-0.3-1.9 0-1.6 0.8-2.7 0.9-1 2.1-1 1.5 0 2.4 1.3 0.8 1.3 0.8 4 0 1.7-0.4 4-0.3 2.2-1.1 4.6-0.7 2.4-1.8 4.9-1.1 2.4-2.6 4.7-2.8 4.6-6.3 6.9-3.4 2.4-6.7 2.4-3 0-4.6-1.7-1.6-1.8-1.6-4.9 0-1.4 0.4-3 0.3-1.6 0.8-3.4zm40.5-19q1.2 1.3 1.2 3.3 0 2.5-1.4 4.1-1.5 1.6-3.4 1.6-1.8 0-2.9-1.3-1.1-1.3-1.1-3.5 0-2.4 1.4-4 1.5-1.6 3.1-1.6 2 0 3.1 1.4zm-7.3 33.7q-0.8 2.3-0.8 3.4 0 1.1 0.6 1.1 1 0 1.8-0.9 0.7-0.9 1.4-2 0.6-1.1 1.2-2 0.6-0.9 1.2-0.9 0.6 0 0.6 0.8 0 0.6-0.8 2.2-0.7 1.5-2.4 3.6-4.2 5.2-8.7 5.2-4 0-4-4.3 0-1.8 0.6-3.8 0.6-1.9 1.3-4.2l4.4-13.7q0.2-0.7 0.2-1.4 0-1-0.5-1-0.6 0-1.5 0.7-0.9 0.8-2.1 2.4-0.9 1.2-1.3 2-0.4 0.8-1.2 0.8-0.4 0.1-0.4-0.6 0-0.8 0.8-2.3 0.8-1.5 2.5-3.3 3.8-4.2 8.5-4.2 3.8 0 3.8 4.2 0 1.7-0.5 3.6-0.6 2-1.3 4.4zm10.4 9.3q-0.2 0-0.4-0.2-0.2-0.3-0.2-0.6v-0.3q0-0.3 0.2-0.7l4.4-20.5q0.4-2 0.4-2.6 0-1.2-0.6-1.2-0.7 0-1.4 0.9-0.6 0.9-1.3 1.9-0.6 1-1.2 1.9-0.5 0.9-1 0.9-0.7 0-0.7-0.9 0-0.3 0.7-2 0.8-1.6 2.5-3.7 1.9-2.4 3.8-3.6 1.8-1.2 3.4-1.2 1.5 0 2.4 1.1 0.9 1.1 0.9 3.1 0 1.7-0.3 3.5-0.3 1.7-0.7 3.4l-0.6 3.1q2.9-7 5.5-10.6 2.7-3.6 5.6-3.6 1.8 0 2.9 1.2 1 1.2 1 3.5 0 3-1.2 4.7-1.3 1.7-3.1 1.7-2.1 0-2.7-2.7-0.1-1-0.2-1.5-0.1-0.6-0.5-0.6-0.9 0-3.1 3.6-2.1 3.6-4.4 10.5-1.2 3.4-1.7 5.6-0.6 2.3-1 3.6-0.4 1.3-0.8 1.8-0.4 0.5-1.2 0.5zm56.4-38.4q1.3 0 1.3 0.9 0 0.4 0 0.6l-1.3 5.9q1.7-0.3 3.1-0.4 1.4-0.1 2.6-0.1 4.6 0 7 2.9 2.5 2.8 2.5 7.7 0 3.6-1.4 7.7-1.3 4-4.1 7.6-2.5 3.3-5.2 5-2.8 1.6-5.4 1.6-3.3 0-6.3-2.8l-1.9 8.7q-0.3 1.4-0.3 2.4 0 1.9 2 2.7 1.1 0.5 2 0.7 0.9 0.3 0.9 1.4 0 1-1 1-0.6 0-3.1-0.4-2.5-0.4-7.1-0.4-2.7 0-4.4 0.3-1.6 0.3-2.3 0.3-1 0-1-1.1 0-0.6 0.3-1 0.3-0.3 0.8-0.5 0.5-0.2 1.1-0.4 0.7-0.2 1.4-0.4 1.3-0.4 1.7-1.2 0.3-0.8 0.7-2.2l8.1-33.3q-1.3 0.6-2 1.2-0.8 0.5-1.5 0.5-1.1 0-1.1-0.9 0-1.2 1.3-2.2 1.4-1 4.3-2.5l2-7.3q0.3-1 0.8-1.5 0.5-0.5 1.5-0.5zm-5.6 30.9q-0.1 1-0.1 1.7 0 1.7 0.8 2.6 0.8 1 2.1 1 3 0 5.9-6.5 1.7-4 2.6-7.9 0.9-3.9 0.9-6.5 0-2.7-1.1-4.2-1.1-1.5-3.1-1.5-0.8 0-1.5 0.2-0.6 0.2-1.5 0.6l-4.5 18.2q-0.4 1.3-0.5 2.3zm54.8-24.8q1.5 0 1.6 0.7 0 0.2-0.1 0.6 0 0.5-0.2 1.3l-5.4 19.8q-0.2 0.8-0.2 1.4-0.1 0.7-0.1 1.1 0 0.9 0.1 1.3 0.2 0.4 0.7 0.4 0.9 0 1.6-0.8 0.7-0.7 1.3-1.6 0.6-1 1.1-1.8 0.5-0.7 1-0.7 0.6 0 0.6 0.8 0 0.4-0.8 2-0.7 1.6-2.5 3.7-2.1 2.7-4.5 4-2.3 1.3-4.4 1.3-1.4 0-2.2-0.9-0.8-0.9-0.8-2.2 0-1.4 0.3-2.8 0.3-1.4 0.6-3.1l1.3-5.9q-4.3 7.6-8.1 11.3-3.7 3.8-7.4 3.8-2.4 0-4.1-2.1-1.7-2.1-1.7-5.9 0-8.5 6-16.2 3.6-4.5 7.3-6.7 3.8-2.2 7.1-2.2 2.7 0 4.8 1.6l0.5-1.2q0.3-0.8 0.8-0.9 0.4-0.1 1.4-0.1zm-19 11q-2.3 4.1-3.3 7.5-1 3.4-1 5.2 0 3.5 2.2 3.5 1.7 0 3.6-2.1 1.8-2.1 4.2-6.2 2.6-4.6 3.9-7.7 1.2-3.2 1.2-4.9 0-3.3-2.5-3.3-3.9 0-8.3 8zm25.4 21.3q-0.1 0-0.3-0.2-0.2-0.3-0.2-0.6v-0.3q0-0.3 0.1-0.7l4.5-20.5q0.4-2 0.4-2.6 0-1.2-0.6-1.2-0.7 0-1.4 0.9-0.7 0.9-1.3 1.9-0.6 1-1.2 1.9-0.6 0.9-1.1 0.9-0.7 0-0.7-0.9 0-0.3 0.8-2 0.8-1.6 2.5-3.7 1.9-2.4 3.7-3.6 1.9-1.2 3.4-1.2 1.6 0 2.4 1.1 0.9 1.1 0.9 3.1 0 1.7-0.3 3.5-0.3 1.7-0.6 3.4l-0.6 3.1q2.8-7 5.5-10.6 2.7-3.6 5.5-3.6 1.9 0 2.9 1.2 1 1.2 1 3.5 0 3-1.2 4.7-1.2 1.7-3 1.7-2.2 0-2.7-2.7-0.2-1-0.2-1.5-0.1-0.6-0.5-0.6-1 0-3.1 3.6-2.1 3.6-4.4 10.5-1.2 3.4-1.8 5.6-0.6 2.3-0.9 3.6-0.4 1.3-0.8 1.8-0.4 0.5-1.3 0.5z" />
		<path id="Path 38" fill-rule="evenodd" class="s2"
			d="m585.9 947.3q1.6 0 1.6 0.6 0 0.2-0.1 0.7 0 0.4-0.2 1.2l-5.3 19.8q-0.2 0.8-0.3 1.5-0.1 0.7-0.1 1.1 0 0.9 0.2 1.2 0.1 0.4 0.6 0.4 0.9 0 1.6-0.7 0.7-0.8 1.3-1.7 0.6-0.9 1.1-1.7 0.6-0.8 1-0.8 0.6 0 0.6 0.9 0 0.3-0.8 1.9-0.7 1.6-2.4 3.8-2.2 2.6-4.5 3.9-2.4 1.3-4.5 1.3-1.4 0-2.1-0.9-0.8-0.9-0.8-2.2 0-1.3 0.2-2.8 0.3-1.4 0.7-3l1.2-5.9q-4.3 7.5-8 11.3-3.8 3.7-7.5 3.7-2.4 0-4.1-2.1-1.7-2.1-1.7-5.9 0-8.5 6-16.1 3.6-4.5 7.4-6.8 3.7-2.2 7.1-2.2 2.6 0 4.7 1.7l0.5-1.3q0.4-0.7 0.8-0.8 0.4-0.1 1.4-0.1zm-18.9 10.9q-2.4 4.1-3.3 7.5-1 3.4-1 5.2 0 3.5 2.2 3.5 1.7 0 3.5-2.1 1.9-2 4.3-6.2 2.6-4.5 3.8-7.7 1.2-3.2 1.2-4.9 0-3.3-2.5-3.3-3.8 0-8.2 8zm54.8-18q1.3 0 1.3 0.6v0.6q0 0.3-0.2 0.6l-1.7 7.2h4.7q0.4 0 0.6 0.1 0.2 0.1 0.2 0.6 0 0.8-0.4 1.5-0.5 0.7-1 0.7h-4.9l-5.1 19.7q-0.2 0.8-0.2 1.6 0 1.6 0.7 1.6 0.9 0 1.8-1 0.9-0.9 1.6-2 0.8-1.1 1.4-2.1 0.6-0.9 1.1-0.9 0.6 0 0.6 0.8 0 0.4-0.6 1.7-0.7 1.3-2.2 3.3-2.2 2.8-4.4 4.3-2.2 1.4-4.2 1.4-2.1 0-3.2-1.5-1.1-1.4-1.1-4.1 0-1.6 0.4-3.7 0.5-2 1.2-4.8l3.6-14.3h-4q-0.6 0-0.6-0.8 0-2.1 1.4-2.1h3.9l2.2-7.3q0-0.3 0.2-0.6 0.1-0.3 0.5-0.6 0.4-0.2 1.3-0.3 0.8-0.2 2.5-0.2zm5.4 39.4q-0.1 0-0.3-0.3-0.2-0.3-0.2-0.6v-0.3q0-0.3 0.1-0.7l4.5-20.4q0.4-2.1 0.4-2.6 0-1.3-0.6-1.3-0.7 0-1.4 0.9-0.7 0.9-1.3 1.9-0.6 1.1-1.2 1.9-0.6 0.9-1 0.9-0.7 0-0.7-0.9 0-0.3 0.7-1.9 0.8-1.7 2.5-3.8 1.9-2.4 3.7-3.6 1.9-1.1 3.5-1.1 1.5 0 2.4 1 0.8 1.1 0.8 3.1 0.1 1.8-0.3 3.5-0.3 1.7-0.6 3.4l-0.6 3.1q2.9-7 5.5-10.6 2.7-3.6 5.6-3.6 1.8 0 2.8 1.2 1.1 1.3 1.1 3.5 0 3-1.3 4.7-1.2 1.8-3 1.8-2.2 0-2.7-2.8-0.2-0.9-0.2-1.5-0.1-0.5-0.5-0.5-1 0-3.1 3.5-2.1 3.6-4.4 10.5-1.2 3.4-1.8 5.7-0.6 2.2-0.9 3.5-0.4 1.3-0.8 1.8-0.4 0.6-1.2 0.6z" />
		<path id="Path 39" fill-rule="evenodd" class="s2"
			d="m684 947.3q1.6 0 1.6 0.6 0 0.2-0.1 0.7 0 0.4-0.2 1.2l-5.3 19.8q-0.2 0.8-0.3 1.5-0.1 0.7-0.1 1.1 0 0.9 0.2 1.2 0.1 0.4 0.7 0.4 0.8 0 1.5-0.7 0.7-0.8 1.3-1.7 0.6-0.9 1.2-1.7 0.5-0.8 0.9-0.8 0.6 0 0.6 0.9 0 0.3-0.8 1.9-0.7 1.6-2.4 3.8-2.2 2.6-4.5 3.9-2.4 1.3-4.5 1.3-1.4 0-2.1-0.9-0.8-0.9-0.8-2.2 0-1.3 0.2-2.8 0.3-1.4 0.7-3l1.2-5.9q-4.3 7.5-8 11.3-3.8 3.7-7.5 3.7-2.4 0-4.1-2.1-1.7-2.1-1.7-5.9 0-8.5 6-16.1 3.6-4.5 7.4-6.8 3.7-2.2 7.1-2.2 2.6 0 4.7 1.7l0.5-1.3q0.4-0.7 0.8-0.8 0.4-0.1 1.4-0.1zm-18.9 10.9q-2.3 4.1-3.3 7.5-1 3.4-1 5.2 0 3.5 2.2 3.5 1.7 0 3.5-2.1 1.9-2 4.3-6.2 2.6-4.5 3.8-7.7 1.2-3.2 1.2-4.9 0-3.3-2.5-3.3-3.8 0-8.2 8zm50.3 12q-0.3 1.1-0.5 1.9-0.2 0.8-0.2 1.6 0 1.1 0.6 1.1 0.9 0 1.7-1 0.8-0.9 1.4-2 0.7-1.1 1.3-2 0.6-0.9 1.1-0.9 0.7 0 0.7 0.9 0 0.3-0.7 1.7-0.7 1.4-2.2 3.3-1.9 2.8-4 4.2-2.1 1.4-3.9 1.4-2 0-3.1-1.5-1.2-1.5-1.2-4.1 0-0.9 0.2-2.4 0.3-1.5 0.9-3.5l3.5-11.3q0.4-1.3 0.5-2.1 0.2-0.8 0.2-1.3 0-0.5-0.3-0.8-0.3-0.3-0.8-0.3-0.6 0-1.6 1-1.1 1-2.4 2.8-1.4 1.9-2.8 4.6-1.5 2.8-2.9 6.5-1.3 3.2-1.9 5.4-0.6 2.2-1 3.6-0.4 1.3-0.8 1.9-0.4 0.7-1.3 0.7h-5.7q-0.2 0-0.4-0.4-0.2-0.3-0.2-0.6 0-0.2 0-0.4 0-0.1 0.1-0.4l5-19.9q0.3-1.2 0.4-2 0.1-0.9 0.1-1.2 0-1.3-0.8-1.3-0.9 0-1.6 0.7-0.7 0.8-1.3 1.8-0.7 0.9-1.3 1.6-0.6 0.8-1 0.8-0.7 0-0.7-0.8 0-1.2 3.1-5 2-2.4 4-3.5 1.9-1.2 3.7-1.2 3.4 0 3.4 4.1 0 1.2-0.2 3-0.2 1.7-0.7 3.9l-0.9 3.9q7.5-14.9 14.5-14.9 2.2 0 3.5 1.3 1.2 1.3 1.2 3.8 0 2.4-1 5.7zm25.6-7.3q1.7 1.8 2.5 3.5 0.9 1.8 0.9 4 0 2.1-0.9 4-0.8 1.8-2.4 3.3-1.5 1.4-3.7 2.3-2.2 0.8-4.9 0.8-4.9 0-7.5-1.7-2.7-1.8-2.7-5.2 0-2.5 0.5-3.6 0.5-1.2 1.7-1.2 0.7 0 1.5 1 0.8 1 2.2 3 3.5 5.3 5.5 5.3 1.2 0 2-1.1 0.8-1 0.8-2.7 0-1.3-0.7-2.8-0.7-1.5-2-3.1l-2.5-2.7q-2.2-2.3-3.5-4.5-1.3-2.2-1.3-4.9 0-4 3.1-6.4 3-2.4 8.1-2.4 4.1 0 6.7 1.1 2.5 1.2 2.5 3.3 0 5.6-1.9 5.6-0.8 0-1.6-0.8-0.7-0.7-1.6-2-1.7-2.2-2.9-3.5-1.2-1.3-2.4-1.3-2.2 0-2.2 2.6 0 1.8 1.1 3.5 1 1.6 3 3.8zm25.7-13.7q0.9 0 0.9 0.9 0 2-1.4 2h-4.2l-1.8 8.9q-1.6 8.1-2.9 14.2-1.4 6.2-3.5 10.3-2.4 4.6-5.5 6.9-3 2.3-6.6 2.3-3.3 0-5-1.7-1.8-1.7-1.8-4.6 0-2 1.2-3.3 1.1-1.4 2.7-1.4 1.5 0 2.4 1.2 0.9 1.1 0.9 3.2v1.5q0 2.2 1.4 2.2 0.9 0 1.6-1.5 0.7-1.5 1.5-4.6 0.7-3 1.6-7.5 0.9-4.4 2.1-10.1l3.4-16h-2.9q-0.9 0-0.9-0.9 0-2 1.4-2h3.2q1.8-8.4 5.5-12.7 3.7-4.3 8.7-4.3 2.9 0 4.5 1.5 1.7 1.6 1.7 4.4 0 1.9-1.1 3.1-1 1.2-2.6 1.2-1.5 0-2.5-1.2-1.1-1.2-1.1-3 0-0.5 0.1-0.9 0.1-0.5 0.1-0.9 0-1-0.7-1-1 0-2.3 3.4-1.3 3.4-2.3 10.4z" />
		<path id="Path 40" fill-rule="evenodd" class="s2"
			d="m788.7 948.6q2.2 1 3.8 2.8 1.6 1.8 2.5 4.4 0.9 2.6 0.9 5.8 0 3.9-1.5 7.4-1.4 3.4-3.8 6.1-2.5 2.7-5.7 4.3-3.3 1.5-6.8 1.5-2.7 0-4.9-1-2.2-1-3.7-2.8-1.5-1.8-2.4-4.3-0.9-2.5-0.9-5.5 0-4.2 1.6-7.8 1.5-3.6 4-6.2 2.5-2.6 5.7-4.1 3.2-1.5 6.5-1.5 2.6 0 4.7 0.9zm-2 3.4q-1-1.7-2.7-1.7-3.3 0-6.1 6.2-1.7 3.6-2.6 7.5-0.8 3.9-0.8 7.8 0 6.5 4 6.5 1.8 0 3.2-1.5 1.4-1.5 2.7-4.6 3.4-7.5 3.4-15.2 0-3.3-1.1-5zm13.5 27.6q-0.2 0-0.4-0.3-0.2-0.3-0.2-0.6v-0.3q0-0.3 0.2-0.7l4.4-20.4q0.4-2.1 0.4-2.6 0-1.3-0.6-1.3-0.7 0-1.4 0.9-0.6 0.9-1.3 1.9-0.6 1.1-1.2 1.9-0.5 0.9-1 0.9-0.7 0-0.7-0.9 0-0.3 0.7-1.9 0.8-1.7 2.5-3.8 1.9-2.4 3.8-3.6 1.8-1.1 3.4-1.1 1.5 0 2.4 1 0.9 1.1 0.9 3.1 0 1.8-0.3 3.5-0.3 1.7-0.7 3.4l-0.6 3.1q2.9-7 5.5-10.6 2.7-3.6 5.6-3.6 1.8 0 2.9 1.2 1 1.3 1 3.5 0 3-1.2 4.7-1.3 1.8-3.1 1.8-2.1 0-2.7-2.8-0.1-0.9-0.2-1.5-0.1-0.5-0.5-0.5-0.9 0-3.1 3.5-2.1 3.6-4.4 10.5-1.2 3.4-1.7 5.7-0.6 2.2-1 3.5-0.4 1.3-0.8 1.8-0.4 0.6-1.2 0.6zm66.3-8q-0.4 1.4-0.4 2 0 0.8 0.4 0.8 0.9 0 1.7-0.9 0.7-0.9 1.3-1.9 0.6-1 1.1-1.9 0.5-0.8 1-0.8 0.6 0 0.6 0.9 0 0.3-0.6 1.6-0.6 1.4-2 3.4-1.9 2.7-3.8 4.1-1.9 1.3-4.1 1.3-3.8 0-3.8-5.1 0-1.4 0.4-3.7 0.4-2.3 1.4-5.2l2.9-8.5q0.5-1.5 0.8-2.6 0.3-1.1 0.3-1.8 0-0.6-0.7-0.6-1 0-3.5 3.3-2.5 3.3-5.4 10.1-1.7 3.9-2.6 6.5-0.9 2.6-1.4 4.2-0.6 1.5-1 2.1-0.5 0.7-1.3 0.7h-5q-0.3 0-0.5-0.3-0.2-0.3-0.2-0.6 0-0.2 0.2-0.9l3.2-13.6q0.9-4.3 1.5-7 0.5-2.6 0.5-3.6 0-1.1-0.7-1.1-0.4 0-1.2 0.9-0.8 0.9-1.9 2.7-1.1 1.7-2.4 4.2-1.2 2.5-2.5 5.8-1.6 4-2.4 6.6-0.9 2.6-1.4 4.2-0.5 1.5-1 2.1-0.4 0.6-1.1 0.6h-5.6q-0.2 0-0.4-0.3-0.2-0.2-0.2-0.6v-0.3q0-0.2 0.1-0.6l5.2-18q0.5-1.8 0.7-3.1 0.3-1.3 0.3-2.1 0-0.8-0.2-1-0.2-0.2-0.7-0.2-0.8 0-1.5 0.7-0.7 0.8-1.3 1.8-0.6 0.9-1.2 1.6-0.6 0.8-1.2 0.8-0.6 0-0.6-0.8 0-1.5 3-5 4.1-4.7 7.7-4.7 3.5 0 3.5 4.3 0 1.5-0.4 3.5-0.3 2-0.9 4.5 3.1-6.1 5.9-9.2 2.8-3.1 5.9-3.1 4 0 4 4.8 0 1.2-0.2 2.9-0.3 1.8-0.7 4l-0.6 3.2q3.5-7.4 6.9-11.2 3.4-3.7 7.1-3.7 4.2 0 4.2 4.7 0 0.9-0.3 2.6-0.3 1.7-1 3.9zm41.2-24.3q1.5 0 1.5 0.6 0 0.2 0 0.7 0 0.5-0.2 1.2l-5.4 19.8q-0.2 0.8-0.3 1.5 0 0.7 0 1.1 0 0.9 0.1 1.2 0.2 0.4 0.7 0.4 0.9 0 1.6-0.7 0.7-0.8 1.3-1.7 0.6-0.9 1.1-1.7 0.5-0.8 1-0.8 0.5 0 0.5 0.9 0 0.3-0.7 1.9-0.8 1.6-2.5 3.8-2.2 2.6-4.5 3.9-2.3 1.3-4.4 1.3-1.4 0-2.2-0.9-0.8-0.8-0.8-2.1 0-1.4 0.3-2.9 0.3-1.4 0.6-3l1.2-5.9q-4.3 7.5-8 11.3-3.7 3.7-7.4 3.7-2.4 0-4.1-2.1-1.7-2.1-1.7-5.9 0-8.5 6-16.1 3.5-4.5 7.3-6.8 3.8-2.2 7.1-2.2 2.7 0 4.7 1.7l0.6-1.3q0.3-0.7 0.7-0.8 0.5-0.1 1.5-0.1zm-19 10.9q-2.3 4.1-3.3 7.5-1 3.4-1 5.2 0 3.5 2.2 3.5 1.7 0 3.6-2.1 1.8-2 4.2-6.2 2.6-4.5 3.8-7.7 1.3-3.2 1.3-4.9 0-3.3-2.6-3.3-3.8 0-8.2 8zm25.4 21.4q-0.1 0-0.3-0.3-0.2-0.3-0.2-0.6v-0.3q0-0.3 0.1-0.7l4.4-20.4q0.5-2.1 0.5-2.6 0-1.3-0.7-1.3-0.6 0-1.3 0.9-0.7 0.9-1.3 1.9-0.6 1.1-1.2 2-0.6 0.8-1.1 0.8-0.7 0-0.7-0.8 0-0.4 0.8-2 0.7-1.7 2.4-3.8 2-2.4 3.8-3.6 1.9-1.1 3.4-1.1 1.5 0 2.4 1 0.9 1.1 0.9 3.1 0 1.8-0.3 3.5-0.3 1.8-0.6 3.4l-0.7 3.1q2.9-7 5.6-10.6 2.6-3.6 5.5-3.6 1.9 0 2.9 1.2 1 1.3 1 3.5 0 3-1.2 4.8-1.2 1.7-3 1.7-2.2 0-2.8-2.8-0.1-0.9-0.2-1.5 0-0.5-0.4-0.5-1 0-3.1 3.5-2.1 3.6-4.5 10.5-1.1 3.4-1.7 5.7-0.6 2.2-1 3.5-0.3 1.3-0.8 1.9-0.4 0.5-1.2 0.5zm46.5-43.1q1.2-1.3 2.9-1.3 1.7 0 2.7 1.4 1.1 1.4 1.1 3.6 0 3-1.1 5.2-1.1 2.3-3.4 4.7-1.8 1.8-3.2 2.6-1.3 0.9-1.8 0.9-0.4 0-0.6-0.3-0.3-0.3-0.3-0.7 0-0.5 0.9-1.3 0.9-0.7 2-1.7 1-1 1.9-2 0.9-1.1 0.9-2.4 0-0.7-0.5-1.1-0.5-0.3-1.1-0.8-0.6-0.4-1.2-1.2-0.5-0.7-0.5-2.3 0-2 1.3-3.3zm-11.5 0q1.2-1.3 2.9-1.3 1.7 0 2.8 1.4 1 1.4 1 3.6 0 2.6-0.9 4.8-0.9 2.1-2.9 4.3-2 2.2-3.6 3.2-1.5 1.1-2.1 1.1-0.9 0-0.9-1 0-0.5 0.9-1.3 0.9-0.7 2-1.7 1-1 1.9-2 0.9-1.1 0.9-2.4 0-0.7-0.5-1.1-0.5-0.3-1.1-0.8-0.6-0.4-1.1-1.2-0.6-0.7-0.6-2.3 0-2 1.3-3.3z" />
	</g>
</svg>